<svg width="584" height="228" viewBox="0 0 584 228" fill="none" xmlns="http://www.w3.org/2000/svg">
<path d="M2 74C2 74 140.457 198 296.5 198C452.543 198 582 2 582 2" stroke="black" stroke-width="2"/>
<path d="M52.286 108.203C47.9431 109.825 51.3812 116.449 53.6431 119.559H57.7146C57.7146 115.097 56.6288 106.58 52.286 108.203Z" stroke="black" stroke-width="2"/>
<path d="M49.9124 124.471C49.9729 120.415 50.8603 120.19 54.8654 120.19C58.8705 120.19 58.1617 119.749 60.0264 121.293C61.891 122.836 61.3364 127.191 59.4484 132.851C57.7256 138.017 56.6957 142.575 53 141.5C49.3043 140.425 49.8369 129.541 49.9124 124.471Z" stroke="black" stroke-width="2"/>
<path d="M420.614 153.203C416.271 154.825 419.709 161.449 421.971 164.559H426.042C426.042 160.097 424.957 151.58 420.614 153.203Z" stroke="black" stroke-width="2"/>
<path d="M418.24 169.471C418.301 165.415 419.188 165.19 423.193 165.19C427.198 165.19 426.489 164.749 428.354 166.293C430.219 167.836 429.664 172.191 427.776 177.851C426.053 183.017 422.696 185.075 419 184C415.304 182.925 418.165 174.541 418.24 169.471Z" stroke="black" stroke-width="2"/>
<path d="M161.347 166.203C157.005 167.825 160.443 174.449 162.705 177.559H166.776C166.776 173.097 165.69 164.58 161.347 166.203Z" stroke="black" stroke-width="2"/>
<path d="M158.974 182.471C159.034 178.415 159.922 178.19 163.927 178.19C167.932 178.19 167.223 177.749 169.088 179.293C170.952 180.836 170.398 185.191 168.51 190.851C166.787 196.017 165.196 201.075 161.5 200C157.804 198.925 158.898 187.541 158.974 182.471Z" stroke="black" stroke-width="2"/>
<path d="M529.852 61.5631C525.296 62.4183 527.549 69.5333 529.246 72.9839L533.257 73.6806C534.021 69.2851 534.408 60.7078 529.852 61.5631Z" stroke="black" stroke-width="2"/>
<path d="M525.53 78.8444C525.1 74.8109 525.954 74.4802 529.93 73.9969C533.905 73.5135 533.149 73.161 535.186 74.4684C537.223 75.7759 537.198 80.1654 536.007 86.0124C534.92 91.348 533.298 94.6209 529.5 94C525.702 93.3791 526.066 83.8862 525.53 78.8444Z" stroke="black" stroke-width="2"/>
<path d="M314.769 191.203C310.427 192.825 313.865 199.449 316.127 202.559H320.198C320.198 198.097 319.112 189.58 314.769 191.203Z" stroke="black" stroke-width="2"/>
<path d="M323.245 207.117C323.048 203.066 322.154 202.871 318.151 203.006C314.148 203.141 314.842 202.676 313.03 204.281C311.219 205.887 311.92 210.22 313.997 215.814C315.893 220.919 314.396 225.839 318.054 224.64C321.711 223.442 323.492 212.182 323.245 207.117Z" stroke="black" stroke-width="2"/>
<ellipse cx="421.536" cy="175.293" rx="9.53593" ry="13.2925" fill="#FF0000" fill-opacity="0.47"/>
<ellipse cx="163.536" cy="190.851" rx="9.53593" ry="13.2925" fill="#FF009D" fill-opacity="0.45"/>
<ellipse cx="54.5359" cy="130.539" rx="9.53593" ry="13.2925" fill="#00FF40" fill-opacity="0.47"/>
<ellipse cx="532" cy="84.5922" rx="9.53593" ry="13.2925" fill="#FF0000" fill-opacity="0.47"/>
<ellipse cx="317.536" cy="214.695" rx="9.53593" ry="13.2925" fill="#2F00FF" fill-opacity="0.47"/>
</svg>
