<svg width="567" height="90" viewBox="0 0 567 90" fill="none" xmlns="http://www.w3.org/2000/svg">
<path d="M1 2C1 2 130.457 59.7935 286.5 59.7935C442.543 59.7935 566 38 566 38" stroke="black" stroke-width="2"/>
<path d="M145.896 42.3691C141.553 43.9914 144.991 50.6158 147.253 53.7252H151.325C151.325 49.2639 150.239 40.7468 145.896 42.3691Z" stroke="black" stroke-width="2"/>
<path d="M143.523 58.6377C143.583 54.5819 144.47 54.3566 148.476 54.3566C152.481 54.3566 151.772 53.9152 153.636 55.459C155.501 57.0028 153.888 59.3394 152 65C150.277 70.1654 150.696 74.5748 147 73.5C143.317 72.4289 143.446 63.7663 143.522 58.6892L143.523 58.6377Z" stroke="black" stroke-width="2"/>
<path d="M353.415 53.2356C348.858 54.0908 351.112 61.2058 352.809 64.6564L356.82 65.3531C357.584 60.9576 357.971 52.3804 353.415 53.2356Z" stroke="black" stroke-width="2"/>
<path d="M349.092 70.5169C349.413 66.4733 350.985 65.9742 353.493 65.6694C356 65.3646 356.5 65.5 358.749 66.141C360.998 66.7819 360.761 71.8379 359.57 77.6849C358.483 83.0205 356.298 87.1209 352.5 86.5C348.702 85.8791 348.5 78 349.092 70.5169Z" stroke="black" stroke-width="2"/>
<path d="M440.741 49.2026C436.398 50.8249 439.836 57.4493 442.098 60.5587H446.17C446.17 56.0974 445.084 47.5803 440.741 49.2026Z" stroke="black" stroke-width="2"/>
<path d="M449.217 65.1175C449.02 61.066 448.125 60.8708 444.123 61.0057C440.12 61.1407 440.813 60.6757 439.002 62.2815C437.19 63.8872 437.891 68.2204 439.969 73.8141C441.865 78.9185 443.343 82.6987 447 81.5C450.657 80.3013 449.463 70.1818 449.217 65.1175Z" stroke="black" stroke-width="2"/>
<ellipse cx="147.536" cy="64.2925" rx="9.53593" ry="13.2925" fill="#FF0000" fill-opacity="0.47"/>
<ellipse cx="443.536" cy="72.6847" rx="9.53593" ry="13.2925" fill="#FF0000" fill-opacity="0.47"/>
<ellipse cx="355.536" cy="76.2925" rx="9.53593" ry="13.2925" fill="#2F00FF" fill-opacity="0.47"/>
</svg>
